<mxfile host="app.diagrams.net" modified="2024-05-22T20:18:58.519Z" agent="Mozilla/5.0 (Windows NT 10.0; Win64; x64) AppleWebKit/537.36 (KHTML, like Gecko) Chrome/124.0.0.0 Safari/537.36" etag="f67RhT5tY7dcaEQwt_mZ" version="24.4.6" type="google" pages="3">
  <diagram name="Professors" id="nZH14hMh4XD1JvLNTRkQ">
    <mxGraphModel dx="1203" dy="1758" grid="0" gridSize="10" guides="1" tooltips="1" connect="1" arrows="1" fold="1" page="0" pageScale="1" pageWidth="827" pageHeight="1169" math="0" shadow="0">
      <root>
        <mxCell id="0" />
        <mxCell id="1" parent="0" />
        <mxCell id="Ksxb9qLQ40tE1iXmb4kz-1" style="edgeStyle=none;curved=1;rounded=0;orthogonalLoop=1;jettySize=auto;html=1;exitX=1;exitY=1;exitDx=0;exitDy=0;fontSize=12;startSize=8;endSize=8;entryX=0;entryY=0;entryDx=0;entryDy=0;" edge="1" parent="1" source="Ksxb9qLQ40tE1iXmb4kz-3" target="Ksxb9qLQ40tE1iXmb4kz-15">
          <mxGeometry relative="1" as="geometry">
            <mxPoint x="81" y="-43" as="targetPoint" />
          </mxGeometry>
        </mxCell>
        <mxCell id="Ksxb9qLQ40tE1iXmb4kz-2" style="edgeStyle=none;curved=1;rounded=0;orthogonalLoop=1;jettySize=auto;html=1;exitX=0;exitY=0.5;exitDx=0;exitDy=0;fontSize=12;startSize=8;endSize=8;" edge="1" parent="1" source="Ksxb9qLQ40tE1iXmb4kz-3" target="Ksxb9qLQ40tE1iXmb4kz-17">
          <mxGeometry relative="1" as="geometry" />
        </mxCell>
        <mxCell id="Ksxb9qLQ40tE1iXmb4kz-3" value="&lt;font style=&quot;font-size: 16px;&quot;&gt;professor 1&lt;/font&gt;" style="ellipse;whiteSpace=wrap;html=1;aspect=fixed;" vertex="1" parent="1">
          <mxGeometry x="-14" y="-180" width="80" height="80" as="geometry" />
        </mxCell>
        <mxCell id="Ksxb9qLQ40tE1iXmb4kz-4" style="edgeStyle=none;curved=1;rounded=0;orthogonalLoop=1;jettySize=auto;html=1;fontSize=12;startSize=8;endSize=8;" edge="1" parent="1" source="Ksxb9qLQ40tE1iXmb4kz-5" target="Ksxb9qLQ40tE1iXmb4kz-11">
          <mxGeometry relative="1" as="geometry" />
        </mxCell>
        <mxCell id="Ksxb9qLQ40tE1iXmb4kz-5" value="&lt;font style=&quot;font-size: 16px;&quot;&gt;professor 3&lt;/font&gt;" style="ellipse;whiteSpace=wrap;html=1;aspect=fixed;" vertex="1" parent="1">
          <mxGeometry x="242" y="-290" width="80" height="80" as="geometry" />
        </mxCell>
        <mxCell id="Ksxb9qLQ40tE1iXmb4kz-6" style="edgeStyle=none;curved=1;rounded=0;orthogonalLoop=1;jettySize=auto;html=1;exitX=0.5;exitY=1;exitDx=0;exitDy=0;fontSize=12;startSize=8;endSize=8;" edge="1" parent="1" source="Ksxb9qLQ40tE1iXmb4kz-7" target="Ksxb9qLQ40tE1iXmb4kz-9">
          <mxGeometry relative="1" as="geometry" />
        </mxCell>
        <mxCell id="Ksxb9qLQ40tE1iXmb4kz-7" value="&lt;font style=&quot;font-size: 16px;&quot;&gt;professor 2&lt;/font&gt;" style="ellipse;whiteSpace=wrap;html=1;aspect=fixed;" vertex="1" parent="1">
          <mxGeometry x="322" y="-171" width="80" height="80" as="geometry" />
        </mxCell>
        <mxCell id="Ksxb9qLQ40tE1iXmb4kz-8" style="edgeStyle=none;curved=1;rounded=0;orthogonalLoop=1;jettySize=auto;html=1;exitX=0;exitY=0;exitDx=0;exitDy=0;fontSize=12;startSize=8;endSize=8;" edge="1" parent="1" source="Ksxb9qLQ40tE1iXmb4kz-9" target="Ksxb9qLQ40tE1iXmb4kz-11">
          <mxGeometry relative="1" as="geometry" />
        </mxCell>
        <mxCell id="Ksxb9qLQ40tE1iXmb4kz-9" value="&lt;font style=&quot;font-size: 16px;&quot;&gt;professor 4&lt;/font&gt;" style="ellipse;whiteSpace=wrap;html=1;aspect=fixed;" vertex="1" parent="1">
          <mxGeometry x="186" y="-109" width="80" height="80" as="geometry" />
        </mxCell>
        <mxCell id="Ksxb9qLQ40tE1iXmb4kz-10" style="edgeStyle=none;curved=1;rounded=0;orthogonalLoop=1;jettySize=auto;html=1;fontSize=12;startSize=8;endSize=8;" edge="1" parent="1" source="Ksxb9qLQ40tE1iXmb4kz-11" target="Ksxb9qLQ40tE1iXmb4kz-3">
          <mxGeometry relative="1" as="geometry" />
        </mxCell>
        <mxCell id="Ksxb9qLQ40tE1iXmb4kz-11" value="&lt;font style=&quot;font-size: 16px;&quot;&gt;professor 5&lt;/font&gt;" style="ellipse;whiteSpace=wrap;html=1;aspect=fixed;" vertex="1" parent="1">
          <mxGeometry x="130" y="-230" width="80" height="80" as="geometry" />
        </mxCell>
        <mxCell id="Ksxb9qLQ40tE1iXmb4kz-12" style="edgeStyle=none;curved=1;rounded=0;orthogonalLoop=1;jettySize=auto;html=1;exitX=0.717;exitY=0.941;exitDx=0;exitDy=0;entryX=0.5;entryY=0;entryDx=0;entryDy=0;fontSize=12;startSize=8;endSize=8;exitPerimeter=0;" edge="1" parent="1" source="Ksxb9qLQ40tE1iXmb4kz-13" target="Ksxb9qLQ40tE1iXmb4kz-19">
          <mxGeometry relative="1" as="geometry" />
        </mxCell>
        <mxCell id="Ksxb9qLQ40tE1iXmb4kz-13" value="&lt;font style=&quot;font-size: 16px;&quot;&gt;professor 8&lt;/font&gt;" style="ellipse;whiteSpace=wrap;html=1;aspect=fixed;" vertex="1" parent="1">
          <mxGeometry x="395" y="-409" width="80" height="80" as="geometry" />
        </mxCell>
        <mxCell id="Ksxb9qLQ40tE1iXmb4kz-14" style="edgeStyle=none;curved=1;rounded=0;orthogonalLoop=1;jettySize=auto;html=1;exitX=0.5;exitY=1;exitDx=0;exitDy=0;entryX=0;entryY=1;entryDx=0;entryDy=0;fontSize=12;startSize=8;endSize=8;" edge="1" parent="1" source="Ksxb9qLQ40tE1iXmb4kz-15" target="Ksxb9qLQ40tE1iXmb4kz-9">
          <mxGeometry relative="1" as="geometry" />
        </mxCell>
        <mxCell id="Ksxb9qLQ40tE1iXmb4kz-15" value="&lt;font style=&quot;font-size: 16px;&quot;&gt;professor 6&lt;/font&gt;" style="ellipse;whiteSpace=wrap;html=1;aspect=fixed;" vertex="1" parent="1">
          <mxGeometry x="50" y="-84" width="80" height="80" as="geometry" />
        </mxCell>
        <mxCell id="Ksxb9qLQ40tE1iXmb4kz-16" style="edgeStyle=none;curved=1;rounded=0;orthogonalLoop=1;jettySize=auto;html=1;exitX=1;exitY=0.5;exitDx=0;exitDy=0;entryX=0;entryY=0.5;entryDx=0;entryDy=0;fontSize=12;startSize=8;endSize=8;" edge="1" parent="1" source="Ksxb9qLQ40tE1iXmb4kz-17" target="Ksxb9qLQ40tE1iXmb4kz-13">
          <mxGeometry relative="1" as="geometry" />
        </mxCell>
        <mxCell id="Ksxb9qLQ40tE1iXmb4kz-17" value="&lt;font style=&quot;font-size: 16px;&quot;&gt;professor 9&lt;/font&gt;" style="ellipse;whiteSpace=wrap;html=1;aspect=fixed;" vertex="1" parent="1">
          <mxGeometry x="130" y="-384" width="80" height="80" as="geometry" />
        </mxCell>
        <mxCell id="Ksxb9qLQ40tE1iXmb4kz-18" style="edgeStyle=none;curved=1;rounded=0;orthogonalLoop=1;jettySize=auto;html=1;exitX=0.5;exitY=1;exitDx=0;exitDy=0;entryX=1.012;entryY=0.286;entryDx=0;entryDy=0;fontSize=12;startSize=8;endSize=8;entryPerimeter=0;" edge="1" parent="1" source="Ksxb9qLQ40tE1iXmb4kz-19" target="Ksxb9qLQ40tE1iXmb4kz-7">
          <mxGeometry relative="1" as="geometry" />
        </mxCell>
        <mxCell id="Ksxb9qLQ40tE1iXmb4kz-19" value="&lt;font style=&quot;font-size: 16px;&quot;&gt;professor 7&lt;/font&gt;" style="ellipse;whiteSpace=wrap;html=1;aspect=fixed;" vertex="1" parent="1">
          <mxGeometry x="443" y="-304" width="80" height="80" as="geometry" />
        </mxCell>
        <mxCell id="Ksxb9qLQ40tE1iXmb4kz-20" style="edgeStyle=none;curved=1;rounded=0;orthogonalLoop=1;jettySize=auto;html=1;exitX=1;exitY=0.5;exitDx=0;exitDy=0;entryX=0;entryY=0.5;entryDx=0;entryDy=0;fontSize=12;startSize=8;endSize=8;" edge="1" parent="1" source="Ksxb9qLQ40tE1iXmb4kz-21" target="Ksxb9qLQ40tE1iXmb4kz-17">
          <mxGeometry relative="1" as="geometry" />
        </mxCell>
        <mxCell id="Ksxb9qLQ40tE1iXmb4kz-21" value="&lt;font style=&quot;font-size: 16px;&quot;&gt;professor 10&lt;/font&gt;" style="ellipse;whiteSpace=wrap;html=1;aspect=fixed;" vertex="1" parent="1">
          <mxGeometry x="-21" y="-375" width="80" height="80" as="geometry" />
        </mxCell>
      </root>
    </mxGraphModel>
  </diagram>
  <diagram id="0sf1z18UwHUgB_8aMCxP" name="researchers">
    <mxGraphModel dx="1844" dy="1246" grid="0" gridSize="10" guides="1" tooltips="1" connect="1" arrows="1" fold="1" page="0" pageScale="1" pageWidth="827" pageHeight="1169" math="0" shadow="0">
      <root>
        <mxCell id="0" />
        <mxCell id="1" parent="0" />
        <mxCell id="oDC-3SXdTVBJX0Z1PH7_-1" style="edgeStyle=none;curved=1;rounded=0;orthogonalLoop=1;jettySize=auto;html=1;exitX=0.5;exitY=1;exitDx=0;exitDy=0;fontSize=12;startSize=8;endSize=8;" edge="1" parent="1" source="oDC-3SXdTVBJX0Z1PH7_-3" target="oDC-3SXdTVBJX0Z1PH7_-25">
          <mxGeometry relative="1" as="geometry" />
        </mxCell>
        <mxCell id="oDC-3SXdTVBJX0Z1PH7_-2" style="edgeStyle=none;curved=1;rounded=0;orthogonalLoop=1;jettySize=auto;html=1;exitX=0.5;exitY=1;exitDx=0;exitDy=0;entryX=0.5;entryY=0;entryDx=0;entryDy=0;fontSize=12;startSize=8;endSize=8;" edge="1" parent="1" source="oDC-3SXdTVBJX0Z1PH7_-3" target="oDC-3SXdTVBJX0Z1PH7_-22">
          <mxGeometry relative="1" as="geometry" />
        </mxCell>
        <mxCell id="oDC-3SXdTVBJX0Z1PH7_-3" value="&lt;span style=&quot;font-size: 16px;&quot;&gt;professor 1&lt;/span&gt;" style="ellipse;whiteSpace=wrap;html=1;aspect=fixed;" vertex="1" parent="1">
          <mxGeometry x="-220" y="390" width="80" height="80" as="geometry" />
        </mxCell>
        <mxCell id="oDC-3SXdTVBJX0Z1PH7_-4" style="edgeStyle=none;curved=1;rounded=0;orthogonalLoop=1;jettySize=auto;html=1;exitX=0.5;exitY=1;exitDx=0;exitDy=0;entryX=0.5;entryY=0;entryDx=0;entryDy=0;fontSize=12;startSize=8;endSize=8;" edge="1" parent="1" source="oDC-3SXdTVBJX0Z1PH7_-5" target="oDC-3SXdTVBJX0Z1PH7_-30">
          <mxGeometry relative="1" as="geometry" />
        </mxCell>
        <mxCell id="oDC-3SXdTVBJX0Z1PH7_-5" value="&lt;span style=&quot;font-size: 16px;&quot;&gt;professor 3&lt;/span&gt;" style="ellipse;whiteSpace=wrap;html=1;aspect=fixed;" vertex="1" parent="1">
          <mxGeometry x="-286" y="671" width="80" height="80" as="geometry" />
        </mxCell>
        <mxCell id="oDC-3SXdTVBJX0Z1PH7_-6" style="edgeStyle=none;curved=1;rounded=0;orthogonalLoop=1;jettySize=auto;html=1;exitX=0.5;exitY=1;exitDx=0;exitDy=0;entryX=0.5;entryY=0;entryDx=0;entryDy=0;fontSize=12;startSize=8;endSize=8;" edge="1" parent="1" source="oDC-3SXdTVBJX0Z1PH7_-7" target="oDC-3SXdTVBJX0Z1PH7_-31">
          <mxGeometry relative="1" as="geometry" />
        </mxCell>
        <mxCell id="oDC-3SXdTVBJX0Z1PH7_-7" value="&lt;span style=&quot;font-size: 16px;&quot;&gt;professor 2&lt;/span&gt;" style="ellipse;whiteSpace=wrap;html=1;aspect=fixed;" vertex="1" parent="1">
          <mxGeometry x="-512" y="677" width="80" height="80" as="geometry" />
        </mxCell>
        <mxCell id="oDC-3SXdTVBJX0Z1PH7_-8" style="edgeStyle=none;curved=1;rounded=0;orthogonalLoop=1;jettySize=auto;html=1;exitX=0.5;exitY=1;exitDx=0;exitDy=0;entryX=0.5;entryY=0;entryDx=0;entryDy=0;fontSize=12;startSize=8;endSize=8;" edge="1" parent="1" source="oDC-3SXdTVBJX0Z1PH7_-9" target="oDC-3SXdTVBJX0Z1PH7_-26">
          <mxGeometry relative="1" as="geometry" />
        </mxCell>
        <mxCell id="oDC-3SXdTVBJX0Z1PH7_-9" value="&lt;span style=&quot;font-size: 16px;&quot;&gt;professor 4&lt;/span&gt;" style="ellipse;whiteSpace=wrap;html=1;aspect=fixed;" vertex="1" parent="1">
          <mxGeometry x="-360" y="390" width="80" height="80" as="geometry" />
        </mxCell>
        <mxCell id="oDC-3SXdTVBJX0Z1PH7_-10" style="edgeStyle=none;curved=1;rounded=0;orthogonalLoop=1;jettySize=auto;html=1;exitX=0.5;exitY=1;exitDx=0;exitDy=0;entryX=0.5;entryY=0;entryDx=0;entryDy=0;fontSize=12;startSize=8;endSize=8;" edge="1" parent="1" source="oDC-3SXdTVBJX0Z1PH7_-11" target="oDC-3SXdTVBJX0Z1PH7_-23">
          <mxGeometry relative="1" as="geometry" />
        </mxCell>
        <mxCell id="oDC-3SXdTVBJX0Z1PH7_-11" value="&lt;span style=&quot;font-size: 16px;&quot;&gt;professor 5&lt;/span&gt;" style="ellipse;whiteSpace=wrap;html=1;aspect=fixed;" vertex="1" parent="1">
          <mxGeometry x="-41" y="390" width="80" height="80" as="geometry" />
        </mxCell>
        <mxCell id="oDC-3SXdTVBJX0Z1PH7_-12" style="edgeStyle=none;curved=1;rounded=0;orthogonalLoop=1;jettySize=auto;html=1;exitX=0.5;exitY=1;exitDx=0;exitDy=0;fontSize=12;startSize=8;endSize=8;" edge="1" parent="1" source="oDC-3SXdTVBJX0Z1PH7_-13" target="oDC-3SXdTVBJX0Z1PH7_-24">
          <mxGeometry relative="1" as="geometry" />
        </mxCell>
        <mxCell id="oDC-3SXdTVBJX0Z1PH7_-13" value="&lt;span style=&quot;font-size: 16px;&quot;&gt;professor 8&lt;/span&gt;" style="ellipse;whiteSpace=wrap;html=1;aspect=fixed;" vertex="1" parent="1">
          <mxGeometry x="-594" y="677" width="80" height="80" as="geometry" />
        </mxCell>
        <mxCell id="oDC-3SXdTVBJX0Z1PH7_-14" style="edgeStyle=none;curved=1;rounded=0;orthogonalLoop=1;jettySize=auto;html=1;exitX=0.5;exitY=1;exitDx=0;exitDy=0;fontSize=12;startSize=8;endSize=8;" edge="1" parent="1" source="oDC-3SXdTVBJX0Z1PH7_-15" target="oDC-3SXdTVBJX0Z1PH7_-29">
          <mxGeometry relative="1" as="geometry" />
        </mxCell>
        <mxCell id="oDC-3SXdTVBJX0Z1PH7_-15" value="&lt;span style=&quot;font-size: 16px;&quot;&gt;professor 6&lt;/span&gt;" style="ellipse;whiteSpace=wrap;html=1;aspect=fixed;" vertex="1" parent="1">
          <mxGeometry x="-175" y="671" width="80" height="80" as="geometry" />
        </mxCell>
        <mxCell id="oDC-3SXdTVBJX0Z1PH7_-16" style="edgeStyle=none;curved=1;rounded=0;orthogonalLoop=1;jettySize=auto;html=1;exitX=0.5;exitY=1;exitDx=0;exitDy=0;entryX=0.5;entryY=0;entryDx=0;entryDy=0;fontSize=12;startSize=8;endSize=8;" edge="1" parent="1" source="oDC-3SXdTVBJX0Z1PH7_-17" target="oDC-3SXdTVBJX0Z1PH7_-27">
          <mxGeometry relative="1" as="geometry" />
        </mxCell>
        <mxCell id="oDC-3SXdTVBJX0Z1PH7_-17" value="&lt;span style=&quot;font-size: 16px;&quot;&gt;professor 9&lt;/span&gt;" style="ellipse;whiteSpace=wrap;html=1;aspect=fixed;" vertex="1" parent="1">
          <mxGeometry x="-485" y="390" width="80" height="80" as="geometry" />
        </mxCell>
        <mxCell id="oDC-3SXdTVBJX0Z1PH7_-18" style="edgeStyle=none;curved=1;rounded=0;orthogonalLoop=1;jettySize=auto;html=1;exitX=0.5;exitY=1;exitDx=0;exitDy=0;entryX=0.5;entryY=0;entryDx=0;entryDy=0;fontSize=12;startSize=8;endSize=8;" edge="1" parent="1" source="oDC-3SXdTVBJX0Z1PH7_-19" target="oDC-3SXdTVBJX0Z1PH7_-31">
          <mxGeometry relative="1" as="geometry" />
        </mxCell>
        <mxCell id="oDC-3SXdTVBJX0Z1PH7_-19" value="&lt;span style=&quot;font-size: 16px;&quot;&gt;professor 7&lt;/span&gt;" style="ellipse;whiteSpace=wrap;html=1;aspect=fixed;" vertex="1" parent="1">
          <mxGeometry x="-414" y="677" width="80" height="80" as="geometry" />
        </mxCell>
        <mxCell id="oDC-3SXdTVBJX0Z1PH7_-20" style="edgeStyle=none;curved=1;rounded=0;orthogonalLoop=1;jettySize=auto;html=1;exitX=0.5;exitY=1;exitDx=0;exitDy=0;entryX=0.5;entryY=0;entryDx=0;entryDy=0;fontSize=12;startSize=8;endSize=8;" edge="1" parent="1" source="oDC-3SXdTVBJX0Z1PH7_-21" target="oDC-3SXdTVBJX0Z1PH7_-28">
          <mxGeometry relative="1" as="geometry" />
        </mxCell>
        <mxCell id="oDC-3SXdTVBJX0Z1PH7_-21" value="&lt;font style=&quot;font-size: 16px;&quot;&gt;professor 10&lt;/font&gt;" style="ellipse;whiteSpace=wrap;html=1;aspect=fixed;" vertex="1" parent="1">
          <mxGeometry x="-600" y="390" width="80" height="80" as="geometry" />
        </mxCell>
        <mxCell id="oDC-3SXdTVBJX0Z1PH7_-22" value="&lt;font style=&quot;font-size: 16px;&quot;&gt;research 9&lt;/font&gt;" style="whiteSpace=wrap;html=1;aspect=fixed;" vertex="1" parent="1">
          <mxGeometry x="-261" y="523" width="80" height="80" as="geometry" />
        </mxCell>
        <mxCell id="oDC-3SXdTVBJX0Z1PH7_-23" value="&lt;font style=&quot;font-size: 16px;&quot;&gt;research 1&lt;/font&gt;" style="whiteSpace=wrap;html=1;aspect=fixed;" vertex="1" parent="1">
          <mxGeometry x="-41" y="523" width="80" height="80" as="geometry" />
        </mxCell>
        <mxCell id="oDC-3SXdTVBJX0Z1PH7_-24" value="&lt;font style=&quot;font-size: 16px;&quot;&gt;research 7&lt;/font&gt;" style="whiteSpace=wrap;html=1;aspect=fixed;" vertex="1" parent="1">
          <mxGeometry x="-587" y="827" width="80" height="80" as="geometry" />
        </mxCell>
        <mxCell id="oDC-3SXdTVBJX0Z1PH7_-25" value="&lt;font style=&quot;font-size: 16px;&quot;&gt;research 6&lt;/font&gt;" style="whiteSpace=wrap;html=1;aspect=fixed;" vertex="1" parent="1">
          <mxGeometry x="-151" y="523" width="80" height="80" as="geometry" />
        </mxCell>
        <mxCell id="oDC-3SXdTVBJX0Z1PH7_-26" value="&lt;font style=&quot;font-size: 16px;&quot;&gt;research 3&lt;/font&gt;" style="whiteSpace=wrap;html=1;aspect=fixed;" vertex="1" parent="1">
          <mxGeometry x="-365" y="523" width="80" height="80" as="geometry" />
        </mxCell>
        <mxCell id="oDC-3SXdTVBJX0Z1PH7_-27" value="&lt;font style=&quot;font-size: 16px;&quot;&gt;research 8&lt;/font&gt;" style="whiteSpace=wrap;html=1;aspect=fixed;" vertex="1" parent="1">
          <mxGeometry x="-482" y="523" width="80" height="80" as="geometry" />
        </mxCell>
        <mxCell id="oDC-3SXdTVBJX0Z1PH7_-28" value="&lt;font style=&quot;font-size: 16px;&quot;&gt;research 10&lt;/font&gt;" style="whiteSpace=wrap;html=1;aspect=fixed;" vertex="1" parent="1">
          <mxGeometry x="-600" y="523" width="80" height="80" as="geometry" />
        </mxCell>
        <mxCell id="oDC-3SXdTVBJX0Z1PH7_-29" value="&lt;font style=&quot;font-size: 16px;&quot;&gt;research 3&lt;/font&gt;" style="whiteSpace=wrap;html=1;aspect=fixed;" vertex="1" parent="1">
          <mxGeometry x="-175" y="823" width="80" height="80" as="geometry" />
        </mxCell>
        <mxCell id="oDC-3SXdTVBJX0Z1PH7_-30" value="&lt;font style=&quot;font-size: 16px;&quot;&gt;research 5&lt;/font&gt;" style="whiteSpace=wrap;html=1;aspect=fixed;" vertex="1" parent="1">
          <mxGeometry x="-286" y="827" width="80" height="80" as="geometry" />
        </mxCell>
        <mxCell id="oDC-3SXdTVBJX0Z1PH7_-31" value="&lt;font style=&quot;font-size: 16px;&quot;&gt;research 2&lt;/font&gt;" style="whiteSpace=wrap;html=1;aspect=fixed;" vertex="1" parent="1">
          <mxGeometry x="-466" y="827" width="80" height="80" as="geometry" />
        </mxCell>
      </root>
    </mxGraphModel>
  </diagram>
  <diagram id="_sBYALadQWoejm7pVkbL" name="Students">
    <mxGraphModel dx="2644" dy="1246" grid="0" gridSize="10" guides="1" tooltips="1" connect="1" arrows="1" fold="1" page="0" pageScale="1" pageWidth="827" pageHeight="1169" math="0" shadow="0">
      <root>
        <mxCell id="0" />
        <mxCell id="1" parent="0" />
        <mxCell id="d0i2qaT9OriItp5GLa18-1" style="edgeStyle=none;curved=1;rounded=0;orthogonalLoop=1;jettySize=auto;html=1;exitX=0.5;exitY=1;exitDx=0;exitDy=0;fontSize=12;startSize=8;endSize=8;" edge="1" parent="1" source="d0i2qaT9OriItp5GLa18-3" target="d0i2qaT9OriItp5GLa18-25">
          <mxGeometry relative="1" as="geometry" />
        </mxCell>
        <mxCell id="d0i2qaT9OriItp5GLa18-2" style="edgeStyle=none;curved=1;rounded=0;orthogonalLoop=1;jettySize=auto;html=1;exitX=0.5;exitY=1;exitDx=0;exitDy=0;entryX=0.5;entryY=0;entryDx=0;entryDy=0;fontSize=12;startSize=8;endSize=8;" edge="1" parent="1" source="d0i2qaT9OriItp5GLa18-3" target="d0i2qaT9OriItp5GLa18-22">
          <mxGeometry relative="1" as="geometry" />
        </mxCell>
        <mxCell id="d0i2qaT9OriItp5GLa18-3" value="&lt;span style=&quot;font-size: 16px;&quot;&gt;student 1&lt;/span&gt;" style="ellipse;whiteSpace=wrap;html=1;aspect=fixed;" vertex="1" parent="1">
          <mxGeometry x="-958" y="279" width="80" height="80" as="geometry" />
        </mxCell>
        <mxCell id="d0i2qaT9OriItp5GLa18-4" style="edgeStyle=none;curved=1;rounded=0;orthogonalLoop=1;jettySize=auto;html=1;exitX=0.5;exitY=1;exitDx=0;exitDy=0;entryX=0.5;entryY=0;entryDx=0;entryDy=0;fontSize=12;startSize=8;endSize=8;" edge="1" parent="1" source="d0i2qaT9OriItp5GLa18-5" target="d0i2qaT9OriItp5GLa18-30">
          <mxGeometry relative="1" as="geometry" />
        </mxCell>
        <mxCell id="d0i2qaT9OriItp5GLa18-5" value="&lt;font style=&quot;font-size: 16px;&quot;&gt;student 3&lt;/font&gt;" style="ellipse;whiteSpace=wrap;html=1;aspect=fixed;" vertex="1" parent="1">
          <mxGeometry x="-984" y="39" width="80" height="80" as="geometry" />
        </mxCell>
        <mxCell id="d0i2qaT9OriItp5GLa18-6" style="edgeStyle=none;curved=1;rounded=0;orthogonalLoop=1;jettySize=auto;html=1;exitX=0.5;exitY=1;exitDx=0;exitDy=0;entryX=0.5;entryY=0;entryDx=0;entryDy=0;fontSize=12;startSize=8;endSize=8;" edge="1" parent="1" source="d0i2qaT9OriItp5GLa18-7" target="d0i2qaT9OriItp5GLa18-31">
          <mxGeometry relative="1" as="geometry" />
        </mxCell>
        <mxCell id="d0i2qaT9OriItp5GLa18-7" value="&lt;span style=&quot;font-size: 16px;&quot;&gt;student 2&lt;/span&gt;" style="ellipse;whiteSpace=wrap;html=1;aspect=fixed;" vertex="1" parent="1">
          <mxGeometry x="-1162" y="41" width="80" height="80" as="geometry" />
        </mxCell>
        <mxCell id="d0i2qaT9OriItp5GLa18-8" style="edgeStyle=none;curved=1;rounded=0;orthogonalLoop=1;jettySize=auto;html=1;exitX=0.5;exitY=1;exitDx=0;exitDy=0;entryX=0.5;entryY=0;entryDx=0;entryDy=0;fontSize=12;startSize=8;endSize=8;" edge="1" parent="1" source="d0i2qaT9OriItp5GLa18-9" target="d0i2qaT9OriItp5GLa18-26">
          <mxGeometry relative="1" as="geometry" />
        </mxCell>
        <mxCell id="d0i2qaT9OriItp5GLa18-9" value="&lt;span style=&quot;font-size: 16px;&quot;&gt;student 4&lt;/span&gt;" style="ellipse;whiteSpace=wrap;html=1;aspect=fixed;" vertex="1" parent="1">
          <mxGeometry x="-1103" y="279" width="80" height="80" as="geometry" />
        </mxCell>
        <mxCell id="d0i2qaT9OriItp5GLa18-10" style="edgeStyle=none;curved=1;rounded=0;orthogonalLoop=1;jettySize=auto;html=1;exitX=0.5;exitY=1;exitDx=0;exitDy=0;entryX=0.5;entryY=0;entryDx=0;entryDy=0;fontSize=12;startSize=8;endSize=8;" edge="1" parent="1" source="d0i2qaT9OriItp5GLa18-11" target="d0i2qaT9OriItp5GLa18-23">
          <mxGeometry relative="1" as="geometry" />
        </mxCell>
        <mxCell id="d0i2qaT9OriItp5GLa18-11" value="&lt;span style=&quot;font-size: 16px;&quot;&gt;student 5&lt;/span&gt;" style="ellipse;whiteSpace=wrap;html=1;aspect=fixed;" vertex="1" parent="1">
          <mxGeometry x="-1365" y="39" width="80" height="80" as="geometry" />
        </mxCell>
        <mxCell id="d0i2qaT9OriItp5GLa18-12" style="edgeStyle=none;curved=1;rounded=0;orthogonalLoop=1;jettySize=auto;html=1;exitX=0.5;exitY=1;exitDx=0;exitDy=0;fontSize=12;startSize=8;endSize=8;" edge="1" parent="1" source="d0i2qaT9OriItp5GLa18-13" target="d0i2qaT9OriItp5GLa18-24">
          <mxGeometry relative="1" as="geometry" />
        </mxCell>
        <mxCell id="d0i2qaT9OriItp5GLa18-13" value="&lt;span style=&quot;font-size: 16px;&quot;&gt;student 8&lt;/span&gt;" style="ellipse;whiteSpace=wrap;html=1;aspect=fixed;" vertex="1" parent="1">
          <mxGeometry x="-1259" y="41" width="80" height="80" as="geometry" />
        </mxCell>
        <mxCell id="d0i2qaT9OriItp5GLa18-14" style="edgeStyle=none;curved=1;rounded=0;orthogonalLoop=1;jettySize=auto;html=1;exitX=0.5;exitY=1;exitDx=0;exitDy=0;fontSize=12;startSize=8;endSize=8;" edge="1" parent="1" source="d0i2qaT9OriItp5GLa18-15" target="d0i2qaT9OriItp5GLa18-29">
          <mxGeometry relative="1" as="geometry" />
        </mxCell>
        <mxCell id="d0i2qaT9OriItp5GLa18-15" value="&lt;font style=&quot;font-size: 16px;&quot;&gt;student 6&lt;/font&gt;" style="ellipse;whiteSpace=wrap;html=1;aspect=fixed;" vertex="1" parent="1">
          <mxGeometry x="-1386" y="277" width="80" height="80" as="geometry" />
        </mxCell>
        <mxCell id="d0i2qaT9OriItp5GLa18-16" style="edgeStyle=none;curved=1;rounded=0;orthogonalLoop=1;jettySize=auto;html=1;exitX=0.5;exitY=1;exitDx=0;exitDy=0;entryX=0.5;entryY=0;entryDx=0;entryDy=0;fontSize=12;startSize=8;endSize=8;" edge="1" parent="1" source="d0i2qaT9OriItp5GLa18-17" target="d0i2qaT9OriItp5GLa18-27">
          <mxGeometry relative="1" as="geometry" />
        </mxCell>
        <mxCell id="d0i2qaT9OriItp5GLa18-17" value="&lt;span style=&quot;font-size: 16px;&quot;&gt;student 9&lt;/span&gt;" style="ellipse;whiteSpace=wrap;html=1;aspect=fixed;" vertex="1" parent="1">
          <mxGeometry x="-1204" y="279" width="80" height="80" as="geometry" />
        </mxCell>
        <mxCell id="d0i2qaT9OriItp5GLa18-18" style="edgeStyle=none;curved=1;rounded=0;orthogonalLoop=1;jettySize=auto;html=1;exitX=0.5;exitY=1;exitDx=0;exitDy=0;entryX=0.5;entryY=0;entryDx=0;entryDy=0;fontSize=12;startSize=8;endSize=8;" edge="1" parent="1" source="d0i2qaT9OriItp5GLa18-19" target="d0i2qaT9OriItp5GLa18-31">
          <mxGeometry relative="1" as="geometry" />
        </mxCell>
        <mxCell id="d0i2qaT9OriItp5GLa18-19" value="&lt;span style=&quot;font-size: 16px;&quot;&gt;student 7&lt;/span&gt;" style="ellipse;whiteSpace=wrap;html=1;aspect=fixed;" vertex="1" parent="1">
          <mxGeometry x="-1082" y="41" width="80" height="80" as="geometry" />
        </mxCell>
        <mxCell id="d0i2qaT9OriItp5GLa18-20" style="edgeStyle=none;curved=1;rounded=0;orthogonalLoop=1;jettySize=auto;html=1;exitX=0.5;exitY=1;exitDx=0;exitDy=0;entryX=0.5;entryY=0;entryDx=0;entryDy=0;fontSize=12;startSize=8;endSize=8;" edge="1" parent="1" source="d0i2qaT9OriItp5GLa18-21" target="d0i2qaT9OriItp5GLa18-28">
          <mxGeometry relative="1" as="geometry" />
        </mxCell>
        <mxCell id="d0i2qaT9OriItp5GLa18-21" value="&lt;font style=&quot;font-size: 16px;&quot;&gt;student 10&lt;/font&gt;" style="ellipse;whiteSpace=wrap;html=1;aspect=fixed;" vertex="1" parent="1">
          <mxGeometry x="-1292" y="275" width="80" height="80" as="geometry" />
        </mxCell>
        <mxCell id="d0i2qaT9OriItp5GLa18-22" value="&lt;font style=&quot;font-size: 16px;&quot;&gt;research 9&lt;/font&gt;" style="whiteSpace=wrap;html=1;aspect=fixed;" vertex="1" parent="1">
          <mxGeometry x="-1001" y="412" width="80" height="80" as="geometry" />
        </mxCell>
        <mxCell id="d0i2qaT9OriItp5GLa18-23" value="&lt;font style=&quot;font-size: 16px;&quot;&gt;research 1&lt;/font&gt;" style="whiteSpace=wrap;html=1;aspect=fixed;" vertex="1" parent="1">
          <mxGeometry x="-1363" y="165" width="80" height="80" as="geometry" />
        </mxCell>
        <mxCell id="d0i2qaT9OriItp5GLa18-24" value="&lt;font style=&quot;font-size: 16px;&quot;&gt;research 7&lt;/font&gt;" style="whiteSpace=wrap;html=1;aspect=fixed;" vertex="1" parent="1">
          <mxGeometry x="-1257" y="169" width="80" height="80" as="geometry" />
        </mxCell>
        <mxCell id="d0i2qaT9OriItp5GLa18-25" value="&lt;font style=&quot;font-size: 16px;&quot;&gt;research 2&lt;/font&gt;" style="whiteSpace=wrap;html=1;aspect=fixed;" vertex="1" parent="1">
          <mxGeometry x="-891" y="412" width="80" height="80" as="geometry" />
        </mxCell>
        <mxCell id="d0i2qaT9OriItp5GLa18-26" value="&lt;font style=&quot;font-size: 16px;&quot;&gt;research 3&lt;/font&gt;" style="whiteSpace=wrap;html=1;aspect=fixed;" vertex="1" parent="1">
          <mxGeometry x="-1103" y="412" width="80" height="80" as="geometry" />
        </mxCell>
        <mxCell id="d0i2qaT9OriItp5GLa18-27" value="&lt;font style=&quot;font-size: 16px;&quot;&gt;research 8&lt;/font&gt;" style="whiteSpace=wrap;html=1;aspect=fixed;" vertex="1" parent="1">
          <mxGeometry x="-1201" y="410" width="80" height="80" as="geometry" />
        </mxCell>
        <mxCell id="d0i2qaT9OriItp5GLa18-28" value="&lt;font style=&quot;font-size: 16px;&quot;&gt;research 10&lt;/font&gt;" style="whiteSpace=wrap;html=1;aspect=fixed;" vertex="1" parent="1">
          <mxGeometry x="-1292" y="408" width="80" height="80" as="geometry" />
        </mxCell>
        <mxCell id="d0i2qaT9OriItp5GLa18-29" value="&lt;font style=&quot;font-size: 16px;&quot;&gt;research 4&lt;/font&gt;" style="whiteSpace=wrap;html=1;aspect=fixed;" vertex="1" parent="1">
          <mxGeometry x="-1386" y="412" width="80" height="80" as="geometry" />
        </mxCell>
        <mxCell id="d0i2qaT9OriItp5GLa18-30" value="&lt;font style=&quot;font-size: 16px;&quot;&gt;research 5&lt;/font&gt;" style="whiteSpace=wrap;html=1;aspect=fixed;" vertex="1" parent="1">
          <mxGeometry x="-984" y="169" width="80" height="80" as="geometry" />
        </mxCell>
        <mxCell id="d0i2qaT9OriItp5GLa18-31" value="&lt;font style=&quot;font-size: 16px;&quot;&gt;research 2&lt;/font&gt;" style="whiteSpace=wrap;html=1;aspect=fixed;" vertex="1" parent="1">
          <mxGeometry x="-1136" y="169" width="80" height="80" as="geometry" />
        </mxCell>
      </root>
    </mxGraphModel>
  </diagram>
</mxfile>
